<?xml version="1.0" encoding="iso-8859-1"?>
<!-- Uploaded to: SVG Repo, www.svgrepo.com, Generator: SVG Repo Mixer Tools -->
<svg height="800px" width="800px" version="1.1" id="Layer_1" xmlns="http://www.w3.org/2000/svg" xmlns:xlink="http://www.w3.org/1999/xlink" 
	 viewBox="0 0 512 512" xml:space="preserve">
<path style="fill:#B3E38A;" d="M256,60.641L512,0v317.204l-256,61.231L0,317.204V0L256,60.641z"/>
<path style="fill:#8CC54C;" d="M256,378.435L0,317.204V0l256,60.641v80.858V378.435z"/>
<path style="fill:#95B8C2;" d="M438.57,254.924c-1.447,0.73-2.988,1.076-4.506,1.076c-3.662,0-7.188-2.015-8.951-5.505
	c-18.507-36.664-48.934-67.022-85.678-85.482c-4.943-2.483-6.938-8.505-4.453-13.449c2.483-4.943,8.505-6.936,13.449-4.453
	c40.555,20.374,74.14,53.885,94.569,94.356C445.492,246.406,443.509,252.429,438.57,254.924z M171.423,493.029
	c-36.753-18.468-67.18-48.826-85.679-85.481c-2.492-4.94-8.516-6.923-13.456-4.43c-4.94,2.492-6.923,8.517-4.43,13.456
	c20.42,40.464,54.005,73.973,94.569,94.357c1.443,0.725,2.977,1.069,4.49,1.069c3.667,0,7.199-2.021,8.959-5.522
	C178.361,501.535,176.367,495.514,171.423,493.029z"/>
<path style="fill:#893912;" d="M411.284,331.246c0,5.533-4.484,10.017-10.017,10.017H266.017v134.921
	c0,5.533-4.484,10.017-10.017,10.017c-5.533,0-10.017-4.484-10.017-10.017V341.264H110.728c-5.533,0-10.017-4.484-10.017-10.017
	c0-5.533,4.484-10.017,10.017-10.017h290.539C406.798,321.229,411.284,325.713,411.284,331.246z"/>
<path style="fill:#BE5924;" d="M256,176.291c-85.628,0-155.29,69.513-155.29,154.955c0,85.443,69.662,154.956,155.29,154.956
	c85.624,0,155.284-69.513,155.284-154.956C411.284,245.803,341.624,176.291,256,176.291z M381.558,331.246
	c0,69.063-56.323,125.25-125.555,125.25c-69.235,0-125.56-56.186-125.56-125.25s56.326-125.25,125.56-125.25
	C325.234,205.997,381.558,262.183,381.558,331.246z M256,298.249c18.265,0,33.071,14.772,33.071,32.996
	c0,18.223-14.806,32.997-33.071,32.997s-33.074-14.775-33.074-32.997C222.926,313.021,237.735,298.249,256,298.249L256,298.249z"/>
<path style="fill:#E69724;" d="M256.002,198.551c-73.326,0-132.981,59.527-132.981,132.694c0,73.168,59.655,132.695,132.981,132.695
	c73.323,0,132.975-59.527,132.975-132.695C388.979,258.078,329.326,198.551,256.002,198.551z M362.858,331.246
	c0,58.778-47.935,106.596-106.855,106.596c-58.923,0-106.861-47.819-106.861-106.596S197.079,224.65,256.002,224.65
	C314.923,224.65,362.858,272.469,362.858,331.246z M256.001,309.354c12.118,0,21.941,9.8,21.941,21.891
	c0,12.09-9.824,21.892-21.941,21.892c-12.118,0-21.943-9.803-21.943-21.892S243.883,309.354,256.001,309.354L256.001,309.354z"/>
</svg>